<svg xmlns="http://www.w3.org/2000/svg" viewBox="0 0 512 512">
  <title>CineTracker</title>
  <defs>
    <linearGradient id="bgGrad" x1="0" y1="0" x2="512" y2="512" gradientUnits="userSpaceOnUse">
      <stop offset="0%" stop-color="#111827"></stop>
      <stop offset="100%" stop-color="#060810"></stop>
    </linearGradient>
    <linearGradient id="playGrad" x1="198" y1="190" x2="330" y2="322" gradientUnits="userSpaceOnUse">
      <stop offset="0%" stop-color="#a5b4fc"></stop>
      <stop offset="100%" stop-color="#4338ca"></stop>
    </linearGradient>
    <radialGradient id="glowGrad" cx="256" cy="256" r="145" gradientUnits="userSpaceOnUse">
      <stop offset="0%" stop-color="#6366f1" stop-opacity="0.6"></stop>
      <stop offset="55%" stop-color="#6366f1" stop-opacity="0.18"></stop>
      <stop offset="100%" stop-color="#6366f1" stop-opacity="0"></stop>
    </radialGradient>
    <radialGradient id="shineGrad" cx="180" cy="140" r="200" gradientUnits="userSpaceOnUse">
      <stop offset="0%" stop-color="#ffffff" stop-opacity="0.06"></stop>
      <stop offset="100%" stop-color="#ffffff" stop-opacity="0"></stop>
    </radialGradient>
    <clipPath id="iconClip">
      <rect width="512" height="512" rx="115"></rect>
    </clipPath>
  </defs>

  
  <rect width="512" height="512" rx="115" fill="url(#bgGrad)"></rect>

  <g clip-path="url(#iconClip)">
    
    <rect x="48" y="100" width="416" height="312" fill="#131c30"></rect>

    
    <rect x="48" y="100" width="416" height="66" fill="#08090f"></rect>
    
    <rect x="48" y="346" width="416" height="66" fill="#08090f"></rect>

    
    <rect x="48" y="165" width="416" height="1" fill="#1e2d4a" opacity="0.6"></rect>
    <rect x="48" y="346" width="416" height="1" fill="#1e2d4a" opacity="0.6"></rect>

    
    <rect x="72" y="117" width="32" height="33" rx="5" fill="#1a2a48"></rect>
    <rect x="120" y="117" width="32" height="33" rx="5" fill="#1a2a48"></rect>
    <rect x="168" y="117" width="32" height="33" rx="5" fill="#1a2a48"></rect>
    <rect x="216" y="117" width="32" height="33" rx="5" fill="#1a2a48"></rect>
    <rect x="264" y="117" width="32" height="33" rx="5" fill="#1a2a48"></rect>
    <rect x="312" y="117" width="32" height="33" rx="5" fill="#1a2a48"></rect>
    <rect x="360" y="117" width="32" height="33" rx="5" fill="#1a2a48"></rect>
    <rect x="408" y="117" width="32" height="33" rx="5" fill="#1a2a48"></rect>

    
    <rect x="72" y="362" width="32" height="33" rx="5" fill="#1a2a48"></rect>
    <rect x="120" y="362" width="32" height="33" rx="5" fill="#1a2a48"></rect>
    <rect x="168" y="362" width="32" height="33" rx="5" fill="#1a2a48"></rect>
    <rect x="216" y="362" width="32" height="33" rx="5" fill="#1a2a48"></rect>
    <rect x="264" y="362" width="32" height="33" rx="5" fill="#1a2a48"></rect>
    <rect x="312" y="362" width="32" height="33" rx="5" fill="#1a2a48"></rect>
    <rect x="360" y="362" width="32" height="33" rx="5" fill="#1a2a48"></rect>
    <rect x="408" y="362" width="32" height="33" rx="5" fill="#1a2a48"></rect>

    
    <circle cx="256" cy="256" r="145" fill="url(#glowGrad)"></circle>

    
    
    <polygon points="196,190 196,322 330,256" fill="url(#playGrad)"></polygon>

    
    <rect width="512" height="512" fill="url(#shineGrad)"></rect>

    
    <rect width="512" height="512" rx="115" fill="none" stroke="rgba(255,255,255,0.07)" stroke-width="2"></rect>
  </g>
</svg>